<svg width="37" height="37" viewBox="0 0 37 37" fill="none" xmlns="http://www.w3.org/2000/svg">
<circle cx="18.5" cy="18.5" r="18.5" fill="#D8833B" fill-opacity="0.31"/>
<path d="M27.5 20.0095H27V19.0095C27 18.2138 26.6839 17.4507 26.1213 16.8881C25.5587 16.3255 24.7956 16.0095 24 16.0095H20V13.7321C20.3813 13.5119 20.6793 13.1721 20.8478 12.7654C21.0162 12.3586 21.0458 11.9076 20.9319 11.4824C20.8179 11.0571 20.5668 10.6813 20.2175 10.4133C19.8682 10.1453 19.4403 10 19 10C18.5597 10 18.1318 10.1453 17.7825 10.4133C17.4332 10.6813 17.1821 11.0571 17.0681 11.4824C16.9542 11.9076 16.9838 12.3586 17.1522 12.7654C17.3207 13.1721 17.6187 13.5119 18 13.7321V16.0095H14C13.2044 16.0095 12.4413 16.3255 11.8787 16.8881C11.3161 17.4507 11 18.2138 11 19.0095V20.0095H10.5C10.1022 20.0095 9.72064 20.1675 9.43934 20.4488C9.15804 20.7301 9 21.1116 9 21.5095C9 21.9073 9.15804 22.2888 9.43934 22.5701C9.72064 22.8514 10.1022 23.0095 10.5 23.0095H11V24.0095C11 24.8051 11.3161 25.5682 11.8787 26.1308C12.4413 26.6934 13.2044 27.0095 14 27.0095H24C24.7956 27.0095 25.5587 26.6934 26.1213 26.1308C26.6839 25.5682 27 24.8051 27 24.0095V23.0095H27.5C27.8978 23.0095 28.2794 22.8514 28.5607 22.5701C28.842 22.2888 29 21.9073 29 21.5095C29 21.1116 28.842 20.7301 28.5607 20.4488C28.2794 20.1675 27.8978 20.0095 27.5 20.0095ZM17 21.5095C17 21.8061 16.912 22.0961 16.7472 22.3428C16.5824 22.5895 16.3481 22.7817 16.074 22.8953C15.7999 23.0088 15.4983 23.0385 15.2074 22.9806C14.9164 22.9228 14.6491 22.7799 14.4393 22.5701C14.2296 22.3603 14.0867 22.0931 14.0288 21.8021C13.9709 21.5111 14.0006 21.2095 14.1142 20.9354C14.2277 20.6613 14.42 20.4271 14.6666 20.2622C14.9133 20.0974 15.2033 20.0095 15.5 20.0095C15.8978 20.0095 16.2794 20.1675 16.5607 20.4488C16.842 20.7301 17 21.1116 17 21.5095ZM24 21.5095C24 21.8061 23.912 22.0961 23.7472 22.3428C23.5824 22.5895 23.3481 22.7817 23.074 22.8953C22.7999 23.0088 22.4983 23.0385 22.2074 22.9806C21.9164 22.9228 21.6491 22.7799 21.4393 22.5701C21.2296 22.3603 21.0867 22.0931 21.0288 21.8021C20.9709 21.5111 21.0006 21.2095 21.1142 20.9354C21.2277 20.6613 21.42 20.4271 21.6666 20.2622C21.9133 20.0974 22.2033 20.0095 22.5 20.0095C22.8978 20.0095 23.2794 20.1675 23.5607 20.4488C23.842 20.7301 24 21.1116 24 21.5095Z" fill="#333A45"/>
</svg>
