<svg width="37" height="37" viewBox="0 0 37 37" fill="none" xmlns="http://www.w3.org/2000/svg">
<circle cx="18.5" cy="18.5" r="18.5" fill="#333A45"/>
<path d="M19 11C19.9283 11 20.8185 11.3687 21.4749 12.0251C22.1313 12.6815 22.5 13.5717 22.5 14.5C22.5 15.4283 22.1313 16.3185 21.4749 16.9749C20.8185 17.6313 19.9283 18 19 18C18.0717 18 17.1815 17.6313 16.5251 16.9749C15.8687 16.3185 15.5 15.4283 15.5 14.5C15.5 13.5717 15.8687 12.6815 16.5251 12.0251C17.1815 11.3687 18.0717 11 19 11ZM19 19.75C22.8675 19.75 26 21.3162 26 23.25V25H12V23.25C12 21.3162 15.1325 19.75 19 19.75Z" fill="white"/>
</svg>
